<svg width="249" height="48" viewBox="0 0 249 48" fill="none" xmlns="http://www.w3.org/2000/svg">
<path d="M0.75 24C0.75 11.16 11.1687 0.75 24.0222 0.75H224.978C237.831 0.75 248.25 11.16 248.25 24C248.25 36.84 237.831 47.25 224.978 47.25H24.0222C11.1687 47.25 0.75 36.84 0.75 24Z" fill="url(#paint0_linear_129_175)" stroke="#EFEFEF" stroke-width="1.5"/>
<path d="M62.9084 30.246C61.7467 30.246 60.7217 29.9658 59.8334 29.4055C58.9451 28.8315 58.2481 28.0252 57.7424 26.9865C57.2504 25.9342 57.0044 24.6837 57.0044 23.235C57.0044 21.7863 57.2504 20.5495 57.7424 19.5245C58.2481 18.4995 58.9451 17.7137 59.8334 17.167C60.7217 16.6203 61.7467 16.347 62.9084 16.347C64.0837 16.347 65.1156 16.6203 66.0039 17.167C66.8922 17.7137 67.5824 18.4995 68.0744 19.5245C68.5801 20.5495 68.8329 21.7863 68.8329 23.235C68.8329 24.6837 68.5801 25.9342 68.0744 26.9865C67.5824 28.0252 66.8922 28.8315 66.0039 29.4055C65.1156 29.9658 64.0837 30.246 62.9084 30.246ZM62.9084 28.1755C63.9607 28.1755 64.8012 27.7313 65.4299 26.843C66.0586 25.941 66.3729 24.7383 66.3729 23.235C66.3729 21.7317 66.0586 20.5563 65.4299 19.709C64.8012 18.848 63.9607 18.4175 62.9084 18.4175C61.8561 18.4175 61.0156 18.848 60.3869 19.709C59.7582 20.5563 59.4439 21.7317 59.4439 23.235C59.4439 24.7383 59.7582 25.941 60.3869 26.843C61.0156 27.7313 61.8561 28.1755 62.9084 28.1755Z" fill="#2C3236"/>
<path d="M71.3099 33.977V19.9345H73.2574L73.4214 21.0005H73.5034C73.927 20.6452 74.3985 20.3377 74.9179 20.078C75.4509 19.8183 75.9907 19.6885 76.5374 19.6885C77.7947 19.6885 78.765 20.1532 79.4484 21.0825C80.1454 22.0118 80.4939 23.2555 80.4939 24.8135C80.4939 25.9615 80.2889 26.9455 79.8789 27.7655C79.4689 28.5718 78.9359 29.1868 78.2799 29.6105C77.6375 30.0342 76.9405 30.246 76.1889 30.246C75.7515 30.246 75.3142 30.1503 74.8769 29.959C74.4395 29.754 74.0159 29.4807 73.6059 29.139L73.6674 30.82V33.977H71.3099ZM75.6969 28.2985C76.3665 28.2985 76.9269 28.0047 77.3779 27.417C77.8289 26.8293 78.0544 25.9683 78.0544 24.834C78.0544 23.8227 77.8835 23.0368 77.5419 22.4765C77.2002 21.9162 76.6467 21.636 75.8814 21.636C75.1707 21.636 74.4327 22.0118 73.6674 22.7635V27.458C74.0364 27.7587 74.3917 27.9773 74.7334 28.114C75.075 28.237 75.3962 28.2985 75.6969 28.2985Z" fill="#2C3236"/>
<path d="M87.1862 30.246C86.2568 30.246 85.4163 30.041 84.6647 29.631C83.913 29.2073 83.3185 28.606 82.8812 27.827C82.4438 27.0343 82.2252 26.0845 82.2252 24.9775C82.2252 23.8842 82.4438 22.9412 82.8812 22.1485C83.3322 21.3558 83.913 20.7477 84.6237 20.324C85.3343 19.9003 86.0792 19.6885 86.8582 19.6885C87.7738 19.6885 88.5392 19.8935 89.1542 20.3035C89.7692 20.6998 90.2338 21.2602 90.5482 21.9845C90.8625 22.6952 91.0197 23.522 91.0197 24.465C91.0197 24.957 90.9855 25.3397 90.9172 25.613H84.5212C84.6305 26.5013 84.9517 27.1915 85.4847 27.6835C86.0177 28.1755 86.6873 28.4215 87.4937 28.4215C87.931 28.4215 88.3342 28.36 88.7032 28.237C89.0858 28.1003 89.4617 27.9158 89.8307 27.6835L90.6302 29.1595C90.1518 29.4738 89.6188 29.7335 89.0312 29.9385C88.4435 30.1435 87.8285 30.246 87.1862 30.246ZM84.5007 24.014H88.9697C88.9697 23.235 88.7988 22.6268 88.4572 22.1895C88.1155 21.7385 87.603 21.513 86.9197 21.513C86.332 21.513 85.8058 21.7317 85.3412 22.169C84.8902 22.5927 84.61 23.2077 84.5007 24.014Z" fill="#2C3236"/>
<path d="M93.2713 30V19.9345H95.2188L95.3828 21.2875H95.4648C95.9158 20.8502 96.4078 20.4743 96.9408 20.16C97.4738 19.8457 98.082 19.6885 98.7653 19.6885C99.845 19.6885 100.631 20.037 101.123 20.734C101.615 21.431 101.861 22.415 101.861 23.686V30H99.5033V23.9935C99.5033 23.1598 99.3803 22.5722 99.1343 22.2305C98.8883 21.8888 98.4851 21.718 97.9248 21.718C97.4875 21.718 97.098 21.8273 96.7563 22.046C96.4283 22.251 96.0525 22.5585 95.6288 22.9685V30H93.2713Z" fill="#2C3236"/>
<path d="M108.846 30V19.9345H111.204V30H108.846ZM110.035 18.1715C109.612 18.1715 109.27 18.0485 109.01 17.8025C108.751 17.5565 108.621 17.2285 108.621 16.8185C108.621 16.4222 108.751 16.101 109.01 15.855C109.27 15.609 109.612 15.486 110.035 15.486C110.459 15.486 110.801 15.609 111.06 15.855C111.32 16.101 111.45 16.4222 111.45 16.8185C111.45 17.2285 111.32 17.5565 111.06 17.8025C110.801 18.0485 110.459 18.1715 110.035 18.1715Z" fill="#2C3236"/>
<path d="M114.212 30V19.9345H116.159L116.323 21.2875H116.405C116.856 20.8502 117.348 20.4743 117.881 20.16C118.414 19.8457 119.022 19.6885 119.706 19.6885C120.785 19.6885 121.571 20.037 122.063 20.734C122.555 21.431 122.801 22.415 122.801 23.686V30H120.444V23.9935C120.444 23.1598 120.321 22.5722 120.075 22.2305C119.829 21.8888 119.426 21.718 118.865 21.718C118.428 21.718 118.038 21.8273 117.697 22.046C117.369 22.251 116.993 22.5585 116.569 22.9685V30H114.212Z" fill="#2C3236"/>
<path d="M129.992 30V16.593H132.37V21.9845H137.802V16.593H140.18V30H137.802V24.055H132.37V30H129.992Z" fill="#2C3236"/>
<path d="M143.585 30V16.593H151.683V18.602H145.963V22.3945H150.842V24.4035H145.963V30H143.585Z" fill="#2C3236"/>
<path d="M162.055 30.246C161.153 30.246 160.278 30.0752 159.431 29.7335C158.597 29.3918 157.859 28.9067 157.217 28.278L158.611 26.6585C159.089 27.1095 159.636 27.4785 160.251 27.7655C160.866 28.0388 161.481 28.1755 162.096 28.1755C162.861 28.1755 163.442 28.0183 163.838 27.704C164.235 27.3897 164.433 26.9728 164.433 26.4535C164.433 25.8932 164.235 25.49 163.838 25.244C163.456 24.998 162.964 24.7452 162.362 24.4855L160.517 23.686C160.08 23.4947 159.65 23.2487 159.226 22.948C158.816 22.6473 158.474 22.2647 158.201 21.8C157.941 21.3353 157.811 20.775 157.811 20.119C157.811 19.4083 158.003 18.7728 158.385 18.2125C158.782 17.6385 159.315 17.1875 159.984 16.8595C160.668 16.5178 161.447 16.347 162.321 16.347C163.1 16.347 163.852 16.5042 164.576 16.8185C165.301 17.1192 165.923 17.5292 166.442 18.0485L165.232 19.5655C164.809 19.2102 164.358 18.93 163.879 18.725C163.415 18.52 162.895 18.4175 162.321 18.4175C161.693 18.4175 161.18 18.561 160.784 18.848C160.401 19.1213 160.21 19.504 160.21 19.996C160.21 20.3377 160.306 20.6247 160.497 20.857C160.702 21.0757 160.968 21.267 161.296 21.431C161.624 21.5813 161.973 21.7317 162.342 21.882L164.166 22.6405C164.959 22.9822 165.608 23.4332 166.114 23.9935C166.62 24.5402 166.872 25.2987 166.872 26.269C166.872 26.9933 166.681 27.6562 166.298 28.2575C165.916 28.8588 165.362 29.344 164.638 29.713C163.927 30.0683 163.066 30.246 162.055 30.246Z" fill="#2C3236"/>
<path d="M169.105 33.977V19.9345H171.053L171.217 21.0005H171.299C171.722 20.6452 172.194 20.3377 172.713 20.078C173.246 19.8183 173.786 19.6885 174.333 19.6885C175.59 19.6885 176.56 20.1532 177.244 21.0825C177.941 22.0118 178.289 23.2555 178.289 24.8135C178.289 25.9615 178.084 26.9455 177.674 27.7655C177.264 28.5718 176.731 29.1868 176.075 29.6105C175.433 30.0342 174.736 30.246 173.984 30.246C173.547 30.246 173.11 30.1503 172.672 29.959C172.235 29.754 171.811 29.4807 171.401 29.139L171.463 30.82V33.977H169.105ZM173.492 28.2985C174.162 28.2985 174.722 28.0047 175.173 27.417C175.624 26.8293 175.85 25.9683 175.85 24.834C175.85 23.8227 175.679 23.0368 175.337 22.4765C174.996 21.9162 174.442 21.636 173.677 21.636C172.966 21.636 172.228 22.0118 171.463 22.7635V27.458C171.832 27.7587 172.187 27.9773 172.529 28.114C172.87 28.237 173.192 28.2985 173.492 28.2985Z" fill="#2C3236"/>
<path d="M182.876 30.246C182.001 30.246 181.284 29.9727 180.723 29.426C180.177 28.8793 179.903 28.1687 179.903 27.294C179.903 26.2143 180.375 25.3807 181.318 24.793C182.261 24.1917 183.764 23.7817 185.828 23.563C185.814 23.03 185.671 22.5722 185.397 22.1895C185.138 21.7932 184.666 21.595 183.983 21.595C183.491 21.595 183.006 21.6907 182.527 21.882C182.063 22.0733 181.605 22.3057 181.154 22.579L180.293 21.0005C180.853 20.6452 181.482 20.3377 182.179 20.078C182.889 19.8183 183.641 19.6885 184.434 19.6885C185.691 19.6885 186.627 20.0643 187.242 20.816C187.871 21.554 188.185 22.6268 188.185 24.0345V30H186.238L186.074 28.893H185.992C185.541 29.2757 185.056 29.5968 184.536 29.8565C184.031 30.1162 183.477 30.246 182.876 30.246ZM183.634 28.401C184.044 28.401 184.413 28.3053 184.741 28.114C185.083 27.909 185.445 27.6357 185.828 27.294V25.039C184.461 25.2167 183.511 25.4832 182.978 25.8385C182.445 26.1802 182.179 26.6038 182.179 27.1095C182.179 27.5605 182.316 27.8885 182.589 28.0935C182.862 28.2985 183.211 28.401 183.634 28.401Z" fill="#2C3236"/>
<path d="M195.209 30.246C194.293 30.246 193.467 30.041 192.729 29.631C192.004 29.2073 191.423 28.606 190.986 27.827C190.562 27.0343 190.351 26.0845 190.351 24.9775C190.351 23.8568 190.583 22.907 191.048 22.128C191.512 21.3353 192.127 20.734 192.893 20.324C193.672 19.9003 194.505 19.6885 195.394 19.6885C196.036 19.6885 196.596 19.7978 197.075 20.0165C197.553 20.2352 197.977 20.5017 198.346 20.816L197.198 22.3535C196.938 22.1212 196.671 21.9435 196.398 21.8205C196.125 21.6838 195.831 21.6155 195.517 21.6155C194.71 21.6155 194.047 21.923 193.528 22.538C193.022 23.153 192.77 23.9662 192.77 24.9775C192.77 25.9752 193.016 26.7815 193.508 27.3965C194.013 28.0115 194.662 28.319 195.455 28.319C195.851 28.319 196.22 28.237 196.562 28.073C196.917 27.8953 197.239 27.6903 197.526 27.458L198.489 29.016C198.024 29.426 197.505 29.7335 196.931 29.9385C196.357 30.1435 195.783 30.246 195.209 30.246Z" fill="#2C3236"/>
<path d="M204.28 30.246C203.351 30.246 202.511 30.041 201.759 29.631C201.007 29.2073 200.413 28.606 199.975 27.827C199.538 27.0343 199.319 26.0845 199.319 24.9775C199.319 23.8842 199.538 22.9412 199.975 22.1485C200.426 21.3558 201.007 20.7477 201.718 20.324C202.429 19.9003 203.173 19.6885 203.952 19.6885C204.868 19.6885 205.633 19.8935 206.248 20.3035C206.863 20.6998 207.328 21.2602 207.642 21.9845C207.957 22.6952 208.114 23.522 208.114 24.465C208.114 24.957 208.08 25.3397 208.011 25.613H201.615C201.725 26.5013 202.046 27.1915 202.579 27.6835C203.112 28.1755 203.782 28.4215 204.588 28.4215C205.025 28.4215 205.428 28.36 205.797 28.237C206.18 28.1003 206.556 27.9158 206.925 27.6835L207.724 29.1595C207.246 29.4738 206.713 29.7335 206.125 29.9385C205.538 30.1435 204.923 30.246 204.28 30.246ZM201.595 24.014H206.064C206.064 23.235 205.893 22.6268 205.551 22.1895C205.21 21.7385 204.697 21.513 204.014 21.513C203.426 21.513 202.9 21.7317 202.435 22.169C201.984 22.5927 201.704 23.2077 201.595 24.014Z" fill="#2C3236"/>
<path d="M213.174 30.246C212.491 30.246 211.807 30.1162 211.124 29.8565C210.441 29.5832 209.853 29.2483 209.361 28.852L210.468 27.335C210.919 27.6767 211.37 27.95 211.821 28.155C212.272 28.36 212.75 28.4625 213.256 28.4625C213.803 28.4625 214.206 28.3463 214.466 28.114C214.725 27.8817 214.855 27.5947 214.855 27.253C214.855 26.966 214.746 26.7337 214.527 26.556C214.322 26.3647 214.056 26.2007 213.728 26.064C213.4 25.9137 213.058 25.7702 212.703 25.6335C212.265 25.4695 211.828 25.2713 211.391 25.039C210.967 24.793 210.618 24.4855 210.345 24.1165C210.072 23.7338 209.935 23.2623 209.935 22.702C209.935 21.8137 210.263 21.0893 210.919 20.529C211.575 19.9687 212.463 19.6885 213.584 19.6885C214.295 19.6885 214.93 19.8115 215.491 20.0575C216.051 20.3035 216.536 20.5837 216.946 20.898L215.86 22.333C215.504 22.0733 215.142 21.8683 214.773 21.718C214.418 21.554 214.042 21.472 213.646 21.472C213.14 21.472 212.764 21.5813 212.518 21.8C212.272 22.005 212.149 22.2647 212.149 22.579C212.149 22.9753 212.354 23.276 212.764 23.481C213.174 23.686 213.652 23.8842 214.199 24.0755C214.664 24.2395 215.115 24.4445 215.552 24.6905C215.989 24.9228 216.352 25.2303 216.639 25.613C216.939 25.9957 217.09 26.5013 217.09 27.13C217.09 27.991 216.755 28.729 216.085 29.344C215.415 29.9453 214.445 30.246 213.174 30.246Z" fill="#2C3236"/>
<path d="M26.9678 25.0862V28.7744H30.656V25.0862H26.9678Z" fill="#FF3270"/>
<path d="M34.3765 25.0862V28.7744H38.0647V25.0862H34.3765Z" fill="#861FFF"/>
<path d="M26.9678 17.6776V21.3658H30.656V17.6776H26.9678Z" fill="#097EFF"/>
<path fill-rule="evenodd" clip-rule="evenodd" d="M24.3872 16.7346C24.3872 15.8301 25.1205 15.0968 26.025 15.0968C27.0548 15.0968 29.7116 15.0968 31.4818 15.0968C32.4207 15.0968 33.1802 15.8579 33.1802 16.7968V22.5619H38.9455C39.8844 22.5619 40.6455 23.323 40.6455 24.2619C40.6455 26.0803 40.6455 27.8987 40.6455 29.7171C40.6455 30.6217 39.9121 31.355 39.0075 31.355H33.2367H31.7959H26.025C25.1205 31.355 24.3872 30.6217 24.3872 29.7171V22.6559V22.5055V16.7346ZM26.9678 17.6774V21.3656H30.656V17.6774H26.9678ZM26.9678 28.7743V25.0861H30.656V28.7743H26.9678ZM34.3766 28.7743V25.0861H38.0648V28.7743H34.3766Z" fill="black"/>
<path d="M35.8711 19.9175L40.2257 15.5628M40.2257 15.5628V18.5221M40.2257 15.5628L37.1951 15.5628" stroke="black" stroke-width="1.5" stroke-linecap="round" stroke-linejoin="round"/>
<defs>
<linearGradient id="paint0_linear_129_175" x1="-1.24207e-07" y1="24" x2="86.5829" y2="24" gradientUnits="userSpaceOnUse">
<stop stop-color="#F5F9FA"/>
<stop offset="1" stop-color="white"/>
</linearGradient>
</defs>
</svg>
