<?xml version="1.0" encoding="UTF-8"?>
<svg id="Logos" xmlns="http://www.w3.org/2000/svg" viewBox="0 0 331.5548875 64.1112338">
  <defs>
    <style>
      .cls-1 {
        fill: #1dd7fa;
      }

      .cls-2 {
        fill: #1d5098;
      }

      .cls-3 {
        fill: #a272f7;
      }
    </style>
  </defs>
  <path class="cls-3" d="M17.9488041,2.6056287c2.6117046-.0153393,8.2338686-.0191752,8.2338686-.0191752,0,0-.2031727,.5944401-.3220599,.9702811-1.3039314,6.1706748-.2991373,12.3106666,2.0249319,18.093997-1.6260783-.5254067-2.9645301-1.7871547-4.5292513-2.3547507-3.3288634-4.8053789-5.4803572-10.8188147-5.4074894-16.6903522Z"/>
  <path class="cls-1" d="M35.8875849,2.5955235c4.2079477-.00907,8.6390725-.0115048,12.8768525,0-.2109258,.2876324-.4953365,.5968764-.7484545,.8576632-5.3154478,5.6260899-8.2531353,13.3768252-8.0345318,21.1083867-2.1860054-.0536912-4.4717271-.3720051-6.5963696-.8935788-1.767981-7.0259017-.7534981-14.6218328,2.5025033-21.0724711Z"/>
  <path class="cls-1" d="M167.0766325,13.2403588c1.6759365-.6174512,3.651022-.2147646,4.7632101,1.2195617,1.2502227,1.5685571,1.0853162,4.042195-.4333681,5.3768108-1.810179,1.7257947-5.1121939,1.2885936-6.2819062-.9702796-1.1275084-2.0364397-.2339354-4.7670285,1.9520641-5.6260928Z"/>
  <path class="cls-2" d="M97.9719896,18.9201428c-1.1467026,1.5493775-2.3432517,3.0642435-3.5398008,4.5714376l-.2339354-.0153407c-1.6490997-1.7142898-3.8312721-2.8609837-6.1898558-3.2138121-1.4496671-.2607869-3.1524521-.0651989-4.4103642,.7440073-1.3307799,.8360518-1.9098836,2.5350008-1.3346188,4.0076805,.3489954,.9242574,1.2540849,1.6567628,2.0747901,2.1591598,3.1486249,1.7066209,6.7804527,2.8456459,9.8485321,4.7056655,.9741185,.6788142,1.9635807,1.3767992,2.6577327,2.3509177,2.0479416,2.5465057,2.2703722,6.2282033,1.1773666,9.2195761-1.0469746,2.7536043-3.3020148,4.7708644-5.9942503,5.8715419-6.6845869,2.592525-15.0949568,.6481269-19.0757917-5.5724046l.0690407-.2607839c1.2962537-1.4496671,2.542661-2.9568641,3.8657749-4.3796827,1.7756528,2.650055,4.4640612,4.5637658,7.6625325,5.0048057,1.9367204,.2991373,4.3259915,.0613571,5.7373052-1.4573389,1.008633-.9319322,1.4074749-2.5311679,.7976955-3.7890799-.7286665-1.5877309-2.3930982-2.3547507-3.8887846-3.0450698-3.4515893-1.457333-7.2751838-2.6040298-9.8945631-5.4420068-2.6347113-2.7535985-3.0335532-7.1984771-1.4074749-10.554189,1.3307799-2.7420966,3.9194719-4.5522639,6.8073012-5.3576341,5.3422905-1.3652973,11.7085576,.0882056,15.2713681,4.4525505Z"/>
  <path class="cls-2" d="M237.2129297,14.7782344c2.0479533-.0076689,4.0958832-.0115048,6.1438365,.0038359,.1610676,2.8341381,.015332,6.1821781,.0728678,9.0853482,2.8993341,.0536912,5.8063459-.0115048,8.7094954,.0306815,.0191942,1.7794858,.0191942,3.5666435,0,5.3461293-2.9031495,.0421863-5.8063225-.0230097-8.7094954,.0306815-.0115165,3.7047073-.0038388,7.4094087-.0038388,11.114116,.0767067,1.4688437,.3911876,3.1025939,1.7833305,3.8887904,1.5532105,.759348,3.6395055,.4103584,5.1466967-.3298188,.4026807-.1534016,.8437265-.5254067,1.28091-.4717156,.5139136,1.5723872,1.5378786,3.3672167,1.825511,4.9165942-1.8063168,1.1275201-3.8005731,1.7833247-5.9137165,1.9980893-2.6653987,.2147646-5.3422905,0-7.4746047-1.7756528-2.1514851-1.7488043-2.8571536-4.8245556-2.9722019-7.4669387-.0115165-3.9578194,.0076777-7.9156446-.0076777-11.873464-1.4304845-.0498582-2.8686468,.0115048-4.3029701-.0306815-.0115165-1.7833217-.0115165-3.5628076,0-5.3461293,1.4650107-.0383504,2.929998,.0153407,4.3911699-.0230097,.0422039-3.029729-.0230097-6.063291,.0306873-9.0968559Z"/>
  <path class="cls-2" d="M261.4546006,14.6555113c1.1965491-.1610735,2.5388338-.0268456,3.7660703-.065196,4.2607897,6.7651149,8.4640669,13.6299431,12.6519887,20.4449162,4.1649122-6.814973,8.3758437-13.6721324,12.5982917-20.4449162,1.2847723-.0115048,2.5695212,0,3.8542701,0,.0115165,11.7507439,.0306873,23.5283334-.0076543,35.2790773-1.9405593,.0115048-3.8811186,.003833-5.8216779,0l-.1035552-.1840831c.0115165-6.8226449-.0191708-13.6452839,.015332-20.4640899-.3068033,.3029703-.5100513,.6711424-.7401713,1.0354756-2.8916564,4.6941636-5.8446875,9.3614787-8.7248508,14.0633083-.571426,.122726-1.633756,.1687453-2.1783336-.0115048-3.0067047-4.8590701-6.0402813-9.6989635-9.0431706-14.5580394-.1227026-.191755-.2684382-.3643333-.4371835-.5215737,.0345028,6.8188119,.0038154,13.6414509,.015332,20.4602569l-.107394,.1802501c-1.9098719,0-3.8235827,.0153378-5.7334547-.0076718-.0230097-11.7277343-.0115165-23.4784752-.0038388-35.2062095Z"/>
  <path class="cls-2" d="M300.7605292,14.5864794c2.1975044,.0038359,4.4026865-.0038359,6.6040297,.0038359,.0345262,9.6452752-.0114931,19.3020524,.0230331,28.9473305,5.9942386,.007666,12.003856-.0076718,17.9942792,.003833,.0306873,2.1093046,.0306873,4.2186092,0,6.3279138-8.1802733,.003833-16.3720397,.0076718-24.552313-.003833l-.0728678-.2377801c.0115165-11.6740431,.0038388-23.367257,.0038388-35.0413001Z"/>
  <path class="cls-2" d="M61.9220507,15.7255044c.0115048,4.2454548,.0115048,8.4985784,0,12.7440332l-.1572346,.2109316c-6.4046205,3.2943489-13.9329163,4.1342365-20.9281395,2.465966-7.0412425-1.6682647-13.2771118-5.9750824-17.4803831-11.8504544,1.5647212,.567596,2.903173,1.829344,4.5292513,2.3547507,1.702785,.9357652,3.6356783,1.5033582,5.4995368,2.017263,2.1246424,.5215737,4.4103642,.8398877,6.5963696,.8935788,8.2032771,.1687424,16.1304266-3.0604105,21.9405996-8.8360691Z"/>
  <path class="cls-2" d="M3.2642086,17.2748848c9.3384661,.0767008,18.7037808,5.0278154,23.8811648,12.8245699-1.1888831-.6481327-2.2780499-1.4803486-3.5091193-2.0632824-6.2166926-3.2291529-13.5378986-4.2224451-20.3720454-2.6308783-.0191737-2.7075791-.0191737-5.4228301,0-8.1304093Z"/>
  <path class="cls-2" d="M128.7524554,23.8980876c-1.9980469,.0115356-4.0574951-.0843506-6.0478516,.0460205,.0306396,1.0393066-.0422363,2.0671387,.0651855,3.0987549-2.385498-2.5349731-5.5877686-4.0383301-9.1160889-3.743042-3.3172607,.072876-6.5733643,1.5493774-8.7900391,4.0230103-4.6903076,5.2349243-4.4870605,14.1937256,.3029785,19.2905884,3.8619385,4.164917,10.8265381,5.2042236,15.5513916,1.9290161,.7746582-.4563599,1.2808838-1.1965332,2.0172119-1.6797485,.0460205,.9319458-.1572266,2.147644,.0843506,3.0067139,1.9559326,0,3.9118652,.0114746,5.8676758-.0038452l.072998-.237793c-.0115967-8.5675659,0-17.1620483-.0078125-25.7296753Zm-9.0584717,19.413269c-2.4736328,1.8255005-6.1323242,1.8485107-8.6480713,.092041-3.7507324-2.5733643-4.3491211-8.3068237-1.4689941-11.7545776,2.5925293-3.2176514,7.8543701-3.4899292,10.8150635-.6404419,1.4343262,1.2885742,2.3049316,3.2253418,2.4315186,5.1428833,.276123,2.6730347-.9051514,5.5877075-3.1295166,7.1600952Z"/>
  <path class="cls-2" d="M200.4880511,29.1330119c-1.6606445-2.8686523-4.5446777-4.8475952-7.7775879-5.5263672-3.6318359-.7440186-7.6932373-.3182983-10.861084,1.7027588-2.9951172,1.8830566-5.0200195,5.0316772-5.6605225,8.494751-.7479248,4.0268555-.0574951,8.4755859,2.5196533,11.7507324,1.7412109,2.3087769,4.3029785,3.7584229,7.0910645,4.4142456,5.3154297,1.2156982,11.0605469,0,15.5129395-3.117981-.8590088-1.5033569-1.6796875-3.0335693-2.5426025-4.5407715-2.7382812,1.7335205-5.8676758,2.7689819-9.1313477,2.6692505-1.9598389-.0996704-4.0537109-.7823486-5.3997803-2.2703857-1.0087891-1.0047607-1.4919434-2.2435303-1.9061279-3.5742798,6.5733643-.0038452,13.1697998,.0076294,19.7354736-.0076904,.4639893-3.4592285,.1687012-6.9108276-1.5800781-9.9942627Zm-18.1516113,5.2003784c.3452148-1.2463989,.8361816-2.4007568,1.6875-3.3901978,2.2089844-2.6807251,6.5043945-3.1409912,9.3308105-1.1965942,1.4420166,1.0700073,2.5234375,2.7996216,2.6500244,4.605957-4.5560303-.0460205-9.1121826-.0037842-13.668335-.019165Z"/>
  <path class="cls-2" d="M227.721059,26.4561105c1.7526432,1.9750767,2.57336,4.7938741,2.4774826,7.4017428-.0115165,5.3307856,.015332,10.673082-.0115165,16.0038676-2.1016269,.0191767-4.2109315,.0191767-6.3125584,0-.0268485-4.9511087,0-9.9060621-.0115165-14.8571708-.0843609-1.8830351-.7823518-3.8849574-2.3624108-5.0278154-2.2588791-1.6605987-5.7871751-1.1927161-7.6318569,.8782352-1.0815008,1.0853338-1.6606045,2.6999132-1.7948236,4.1994325-.0038388,4.8782467,0,9.7603323,0,14.6385732l-.107394,.1764171c-2.0671007,.003833-4.1342248,.0115048-6.201349-.003833-.0345028-8.64815-.0230097-17.3154767-.0076543-25.9674597,2.0709396-.0230097,4.1457414-.0191737,6.2166809,0,.0038388,1.0661571,.0038388,2.1284813-.0038388,3.1946384,.9741302-1.0393115,1.771814-2.0747901,3.0949279-2.7114151,3.9885126-2.0939638,9.6414452-1.4151526,12.6558276,2.0747872Z"/>
  <path class="cls-2" d="M160.6567522,31.0083782c-1.522583-3.6471558-4.7210693-6.5043335-8.5983887-7.4017334-2.75354-.5982666-5.6875-.4755859-8.1916504,.9204102-1.2580566,.6328125-2.2053223,1.5800781-3.2331543,2.5119629,.0153809-1.046936,.0078125-2.0939331,.0078125-3.1409302-2.1054688-.019165-4.2148438-.019165-6.3203125,0-.0039062,11.3672485-.0039062,22.7421265,0,34.109375,2.1054688,.019165,4.2148438,.019165,6.3203125,0-.0039062-3.7277222,.0229492-7.4592285-.0153809-11.1907959,.8513184,.7210083,1.595459,1.4765015,2.5617676,2.0594482,2.9262695,1.8829956,6.880249,2.0095825,10.0939941,.862915,3.394043-1.1658936,6.1247559-3.9386597,7.4555664-7.2445068,1.4726562-3.6356812,1.4572754-7.8773193-.0805664-11.486145Zm-7.8735352,12c-2.9453125,2.4890137-7.7583008,2.2282104-10.3087158-.7094727-2.4122314-2.7267456-2.5925293-7.1486206-.5253906-10.1170044,.8897705-1.3231201,2.2205811-2.2780151,3.7315674-2.7650757,2.7957764-.8590698,5.9672852-.092041,7.8925781,2.1437988,2.7995605,3.2368164,2.4927979,8.6519775-.7900391,11.4477539Z"/>
  <path class="cls-2" d="M165.4889075,23.8981c2.1016386-.0191737,4.2071044-.0191737,6.3087313,0,.0191942,8.586787,0,17.2042555,.0076777,25.7910426l-.107394,.1802501c-2.0671007,.003833-4.1342248,.0115048-6.201349-.003833-.0345145-8.64815-.0230097-17.3154767-.007666-25.9674597Z"/>
  <path class="cls-2" d="M29.7340654,34.6056964c4.8322216,2.2051821,8.9702969,5.6836199,12.0537142,9.9981066-1.5570494-.6366279-2.8993341-1.8178392-4.5292513-2.3892711-1.7142898-.8820681-3.6126628-1.4995194-5.4688494-2.0019164-1.4304962-.3336576-2.8724915-.5982804-4.3336633-.747849-8.8744195-.9127496-17.9175842,2.3547507-24.1918069,8.6903363-.0230097-4.2492907-.0153407-8.4985814-.0038359-12.7478721,.2301083-.3796711,.8283828-.4908922,1.2042239-.7171617,7.8542817-3.6970355,17.3845057-3.7200451,25.2694688-.0843727Z"/>
  <path class="cls-2" d="M38.0255481,33.8003291c1.5071971,.8744022,2.9261826,1.8600196,4.5407561,2.5618435,5.9865902,2.845643,12.8936077,3.5934861,19.3519135,2.1131376,.0191767,2.711418,.0191767,5.4228301,0,8.1304151-9.3154594-.065196-18.7498001-5.0048057-23.8926696-12.8053962Z"/>
  <path class="cls-1" d="M25.2508334,39.3727278c.7363384-.065196,1.4611719,.130392,2.2051821,.0920386,1.4611719,.1495686,2.9031671,.4141914,4.3336633,.747849,1.6836083,7.0565803,.7861965,14.5081754-2.4851485,20.974153l-.2991373,.0920445c-4.1764229-.0153378-8.3566787,.0306815-12.5331016-.0230097,.9280933-1.2425743,2.082459-2.2818829,2.9453564-3.5819813,3.9233078-5.30011,5.7948323-11.7392391,5.8331856-18.3010942Z"/>
  <path class="cls-3" d="M37.2585283,42.2145319c1.6299172,.5714319,2.9722019,1.7526432,4.5292513,2.3892711,3.3902322,4.8590701,5.30011,10.5772045,5.4995368,16.5062647l-.2646228,.191755c-2.6232123-.065196-5.2655955,.0498582-7.8849632-.0575241,1.016299-4.7401829,.9779456-9.6261015-.3068091-14.3087544-.4065196-1.6184124-1.077662-3.1371142-1.572393-4.7210121Z"/>
</svg>