<?xml version="1.0" encoding="UTF-8"?>
<svg id="Logos" xmlns="http://www.w3.org/2000/svg" viewBox="0 0 64.4443146 63.1184612">
  <defs>
    <style>
      .cls-1 {
        fill: #1dd7fa;
      }

      .cls-2 {
        fill: #1d5098;
      }

      .cls-3 {
        fill: #a272f7;
      }
    </style>
  </defs>
  <path class="cls-3" d="M16.6927776,1.7004971c2.6117046-.0153393,8.2338686-.0191752,8.2338686-.0191752,0,0-.2031727,.5944401-.3220599,.9702811-1.3039314,6.1706748-.2991373,12.3106666,2.0249319,18.093997-1.6260783-.5254067-2.9645301-1.7871547-4.5292513-2.3547507-3.3288634-4.8053789-5.4803572-10.8188147-5.4074894-16.6903522Z"/>
  <path class="cls-1" d="M34.6315584,1.6903919c4.2079477-.00907,8.6390725-.0115048,12.8768525,0-.2109258,.2876324-.4953365,.5968764-.7484545,.8576632-5.3154478,5.6260899-8.2531353,13.3768252-8.0345318,21.1083867-2.1860054-.0536912-4.4717271-.3720051-6.5963696-.8935788-1.767981-7.0259017-.7534981-14.6218328,2.5025033-21.0724711Z"/>
  <path class="cls-2" d="M60.6660242,14.8203728c.0115048,4.2454548,.0115048,8.4985784,0,12.7440332l-.1572346,.2109316c-6.4046205,3.2943489-13.9329163,4.1342365-20.9281395,2.465966-7.0412425-1.6682647-13.2771118-5.9750824-17.4803831-11.8504544,1.5647212,.567596,2.903173,1.829344,4.5292513,2.3547507,1.702785,.9357652,3.6356783,1.5033582,5.4995368,2.017263,2.1246424,.5215737,4.4103642,.8398877,6.5963696,.8935788,8.2032771,.1687424,16.1304266-3.0604105,21.9405996-8.8360691Z"/>
  <path class="cls-2" d="M2.0081822,16.3697532c9.3384661,.0767008,18.7037808,5.0278154,23.8811648,12.8245699-1.1888831-.6481327-2.2780499-1.4803486-3.5091193-2.0632824-6.2166926-3.2291529-13.5378986-4.2224451-20.3720454-2.6308783-.0191737-2.7075791-.0191737-5.4228301,0-8.1304093Z"/>
  <path class="cls-2" d="M28.4780389,33.7005648c4.8322216,2.2051821,8.9702969,5.6836199,12.0537142,9.9981066-1.5570494-.6366279-2.8993341-1.8178392-4.5292513-2.3892711-1.7142898-.8820681-3.6126628-1.4995194-5.4688494-2.0019164-1.4304962-.3336576-2.8724915-.5982804-4.3336633-.747849-8.8744195-.9127496-17.9175842,2.3547507-24.1918069,8.6903363-.0230097-4.2492907-.0153407-8.4985814-.0038359-12.7478721,.2301083-.3796711,.8283828-.4908922,1.2042239-.7171617,7.8542817-3.6970355,17.3845057-3.7200451,25.2694688-.0843727Z"/>
  <path class="cls-2" d="M36.7695216,32.8951975c1.5071971,.8744022,2.9261826,1.8600196,4.5407561,2.5618435,5.9865902,2.845643,12.8936077,3.5934861,19.3519135,2.1131376,.0191767,2.711418,.0191767,5.4228301,0,8.1304151-9.3154594-.065196-18.7498001-5.0048057-23.8926696-12.8053962Z"/>
  <path class="cls-1" d="M23.9948069,38.4675962c.7363384-.065196,1.4611719,.130392,2.2051821,.0920386,1.4611719,.1495686,2.9031671,.4141914,4.3336633,.747849,1.6836083,7.0565803,.7861965,14.5081754-2.4851485,20.974153l-.2991373,.0920445c-4.1764229-.0153378-8.3566787,.0306815-12.5331016-.0230097,.9280933-1.2425743,2.082459-2.2818829,2.9453564-3.5819813,3.9233078-5.30011,5.7948323-11.7392391,5.8331856-18.3010942Z"/>
  <path class="cls-3" d="M36.0025018,41.3094003c1.6299172,.5714319,2.9722019,1.7526432,4.5292513,2.3892711,3.3902322,4.8590701,5.30011,10.5772045,5.4995368,16.5062647l-.2646228,.191755c-2.6232123-.065196-5.2655955,.0498582-7.8849632-.0575241,1.016299-4.7401829,.9779456-9.6261015-.3068091-14.3087544-.4065196-1.6184124-1.077662-3.1371142-1.572393-4.7210121Z"/>
</svg>